ExampleDataM6
version=1
nRows=42
nColumns=19
inDegrees=no
endheader
time	l_ground_force_vx	l_ground_force_vy	l_ground_force_vz	l_ground_force_px	l_ground_force_py	l_ground_force_pz	ground_force_vx	ground_force_vy	ground_force_vz	ground_force_px	ground_force_py	ground_force_pz	l_ground_torque_x	l_ground_torque_y	l_ground_torque_z	ground_torque_x	ground_torque_y	ground_torque_z	
31.68	0	105.309366758816	0	0.0228286860541744	0	-0.0162000440600522	0	655.629962099457	0	0.0544633248389554	0	0.00972333782729969	0	0	0	0	0	0
31.69	0	105.288475913156	0	0.0228260796176067	0	-0.0161996223034047	0	658.037162537279	0	0.0545628373963847	0	0.00975011193457545	0	0	0	0	0	0
31.7	0	105.074646701165	0	0.0228284194573459	0	-0.0162000023397439	0	659.196583554139	0	0.0545803922607357	0	0.00974423953868458	0	0	0	0	0	0
31.71	0	104.448404112116	0	0.0228297061403628	0	-0.0162002114527254	0	658.872361338149	0	0.0545234014110206	0	0.00972443799259419	0	0	0	0	0	0
31.72	0	103.43263061348	0	0.0228278640644491	0	-0.0161999132206706	0	657.86171483417	0	0.0544461531807707	0	0.00970302015253079	0	0	0	0	0	0
31.73	0	102.311714030351	0	0.022824645951228	0	-0.016199391820606	0	657.219298088724	0	0.0544184960270764	0	0.00967942788388722	0	0	0	0	0	0
31.74	0	101.388394962712	0	0.0228260034337178	0	-0.0161996119474414	0	657.149933041558	0	0.0544748888769865	0	0.00965300817701621	0	0	0	0	0	0
31.75	0	100.802347339596	0	0.0228421800362884	0	-0.0162022338001819	0	657.014367904892	0	0.05458344904138	0	0.00962715366614696	0	0	0	0	0	0
31.76	0	100.571733999339	0	0.0228852248021365	0	-0.0162092100636684	0	656.213660149778	0	0.0546764936913802	0	0.00960229238412318	0	0	0	0	0	0
31.77	0	100.6734774337	0	0.0229604727407901	0	-0.0162214051220767	0	654.46644565486	0	0.0546886143073158	0	0.00957070968400908	0	0	0	0	0	0
31.78	0	100.945234613201	0	0.0230490030096748	0	-0.0162357521071052	0	651.710298150027	0	0.0545886745181463	0	0.00951843137828616	0	0	0	0	0	0
31.79	0	101.02953460818	0	0.0231069233684318	0	-0.0162451369115776	0	648.439420319399	0	0.0544125453378771	0	0.00943015995918658	0	0	0	0	0	0
31.8	0	100.673858215488	0	0.0231134089948525	0	-0.0162461836659243	0	645.729700824676	0	0.0542465100954843	0	0.00929445233806982	0	0	0	0	0	0
31.81	0	100.015176157159	0	0.023101531650073	0	-0.0162442518091451	0	644.489859959862	0	0.0541618128513948	0	0.00910653178891837	0	0	0	0	0	0
31.82	0	99.3682177318095	0	0.0231003652446678	0	-0.0162440553760911	0	644.942453606645	0	0.0541640845437948	0	0.00886885889064662	0	0	0	0	0	0
31.83	0	98.8688997068293	0	0.0230832132317811	0	-0.0162412727832895	0	646.744560946071	0	0.0541969924390852	0	0.00859125803749265	0	0	0	0	0	0
31.84	0	98.499778235108	0	0.0230171627975879	0	-0.0162305730165942	0	649.279235012712	0	0.0542021611135641	0	0.0082892808292341	0	0	0	0	0	0
31.85	0	98.2940631351924	0	0.0229216580964989	0	-0.0162151042854351	0	652.059677868111	0	0.0541884774982273	0	0.00798351034541627	0	0	0	0	0	0
31.86	0	98.3234678750154	0	0.0228444397318577	0	-0.016202597965063	0	654.991616062301	0	0.0542263159078476	0	0.00769783564727914	0	0	0	0	0	0
31.87	0	98.567158907217	0	0.0228205197419286	0	-0.016198724230804	0	658.077508256712	0	0.0543610613559051	0	0.00745024028921832	0	0	0	0	0	0
31.88	0	98.9044691473832	0	0.0228722577661631	0	-0.0162071043486819	0	660.973304361616	0	0.0545498636747875	0	0.00724197387872902	0	0	0	0	0	0
31.89	0	99.2538506166786	0	0.0230142500115429	0	-0.0162301023785422	0	663.135422574933	0	0.054700682218085	0	0.00705575381799214	0	0	0	0	0	0
31.9	0	99.6291488268983	0	0.0232306744813411	0	-0.0162651557553542	0	664.464502254416	0	0.0547623166463879	0	0.0068687708047385	0	0	0	0	0	0
31.91	0	99.962972428117	0	0.0234464477937039	0	-0.0163001036123973	0	665.381576989624	0	0.0547555022714844	0	0.00667386978225903	0	0	0	0	0	0
31.92	0	100.019430550419	0	0.0235515310193483	0	-0.016317123466758	0	666.093359321415	0	0.0547320281961216	0	0.00648770986792558	0	0	0	0	0	0
31.93	0	99.6239551143955	0	0.0234849484014537	0	-0.0163063393676712	0	666.282017417138	0	0.0547320307471879	0	0.00633596833839863	0	0	0	0	0	0
31.94	0	98.9012884303712	0	0.023289692173643	0	-0.0162747145970653	0	665.647444754987	0	0.0547700086088476	0	0.00623054317653273	0	0	0	0	0	0
31.95	0	98.2360215476322	0	0.0230716158032091	0	-0.0162393937816688	0	664.336637553955	0	0.0548328093552036	0	0.00616017737590138	0	0	0	0	0	0
31.96	0	98.026420880274	0	0.0229121133189583	0	-0.0162135599243794	0	662.784194385305	0	0.0548855051871779	0	0.00610125435190106	0	0	0	0	0	0
31.97	0	98.416002472873	0	0.0228294194934563	0	-0.0162001663391491	0	661.430793294509	0	0.0548981650292444	0	0.00603687363746497	0	0	0	0	0	0
31.98	0	99.1251758034464	0	0.0228017766255321	0	-0.016195688864657	0	660.617917442326	0	0.0548802185738249	0	0.0059671137826452	0	0	0	0	0	0
31.99	0	99.4087541559508	0	0.0228002022727286	0	-0.0161954331521413	0	660.413227050624	0	0.0548812178470402	0	0.00590529340974936	0	0	0	0	0	0
32	0	98.0802916875924	0	0.0228046579633764	0	-0.0161961535847787	0	660.445423047902	0	0.0549436743392277	0	0.00586998300709451	0	0	0	0	0	0
32.01	0	93.7640190015145	0	0.0228084981689194	0	-0.0161967741491839	0	660.230320239103	0	0.0550425617952852	0	0.00587894520788875	0	0	0	0	0	0
32.02	0	85.9144407889383	0	0.0228180355499985	0	-0.016198318430512	0	659.671713719554	0	0.0550760022098216	0	0.00593931352618826	0	0	0	0	0	0
32.03	0	76.0880718930103	0	0.022849856076437	0	-0.0162034750770414	0	659.099424333908	0	0.0549559653418261	0	0.00603585213319703	0	0	0	0	0	0
32.04	0	67.3424251308765	0	0.022923976727818	0	-0.0162154893145971	0	659.019844265282	0	0.0547192000350756	0	0.00613439926677157	0	0	0	0	0	0
32.05	0	61.8426898912134	0	0.0230477938513732	0	-0.0162355614451017	0	659.736093494752	0	0.0545007107259305	0	0.00620580117158107	0	0	0	0	0	0
32.06	0	59.6483529741227	0	0.0231862206397204	0	-0.0162580061482238	0	660.92677460162	0	0.054394854171215	0	0.00624374873511573	0	0	0	0	0	0
32.07	0	59.4679723208333	0	0.0232570097324176	0	-0.016269491552007	0	661.758109470221	0	0.0543857918092347	0	0.0062559682609821	0	0	0	0	0	0
32.08	0	59.8185863958846	0	0.0232057389005355	0	-0.0162611866487476	0	661.544420005537	0	0.054408018457097	0	0.00624988135056527	0	0	0	0	0	0
32.09	0	59.8171813760324	0	0.0230733321410491	0	-0.0162397000815589	0	660.23570642957	0	0.0544266471455595	0	0.00623261616583665	0	0	0	0	0	0
